<svg id="Lag_1" data-name="Lag 1" xmlns="http://www.w3.org/2000/svg" viewBox="0 0 53.26 80.73"><path d="M703.18,422.87a8.83,8.83,0,0,1-4.45,1.33,5.7,5.7,0,0,1-4.2-1.95,12.16,12.16,0,0,1-2.33-4.11,28.79,28.79,0,0,1-1.17-4.56,16,16,0,0,1-.26-4.74,28.94,28.94,0,0,0,.3-4.61,25.24,25.24,0,0,0-.77-4.53,17.61,17.61,0,0,0-1.65-4.24,11.65,11.65,0,0,0-2.82-3.45,9.94,9.94,0,0,0-3.93-2c-2.91-.73-6-.22-9,.54a26,26,0,0,0-8.29,3.69,14.82,14.82,0,0,0-3.3,3,15,15,0,0,0-1.26,1.81c-.16.33-.31.67-.47,1a5.24,5.24,0,0,0-.39,1,13.2,13.2,0,0,0,.26,8.66,15.17,15.17,0,0,0,5.09,7.1,21.27,21.27,0,0,0,8.17,3.57,31.2,31.2,0,0,0,9,.57,29.8,29.8,0,0,0,16.65-6.46A23.16,23.16,0,0,0,706.53,399a30,30,0,0,0-.28-9,24.21,24.21,0,0,0-3.15-8.38,15.76,15.76,0,0,0-1.3-1.79l-.72-.84a9.22,9.22,0,0,0-.79-.74,13.52,13.52,0,0,0-3.65-2.43,11,11,0,0,0-4.16-1,7.52,7.52,0,0,0-4,.9,32.17,32.17,0,0,0-3.61,2.74,31,31,0,0,1-4,2.7,31.42,31.42,0,0,1-9,3.45,17.46,17.46,0,0,1-4.9.27,10.92,10.92,0,0,1-4.77-1.55,11.44,11.44,0,0,1-3.57-3.49,18,18,0,0,1-2-4.44,26.55,26.55,0,0,1-1-4.72c-.08-.8-.15-1.59-.17-2.4s0-1.62.1-2.42a22.14,22.14,0,0,1,3-9.09,28.39,28.39,0,0,1,6.19-7.22,24.85,24.85,0,0,1,8.08-5,18.86,18.86,0,0,1,9.45-.75,20.78,20.78,0,0,1,8.61,3.84,22.35,22.35,0,0,1,3.47,3.19l3.26,3.34c2.23,2.19,4.57,4.25,6.85,6.38-2.35-2.06-4.76-4-7.06-6.16l-3.35-3.27a21.87,21.87,0,0,0-3.48-3.05,20.2,20.2,0,0,0-8.43-3.53,18,18,0,0,0-9,.93,24.25,24.25,0,0,0-7.68,4.91,27.62,27.62,0,0,0-5.83,7,21,21,0,0,0-2.72,8.57c0,.75-.06,1.51-.05,2.26s.1,1.51.19,2.26a24.48,24.48,0,0,0,1,4.43c.91,2.84,2.51,5.54,5,7s5.56,1.59,8.47,1a29.46,29.46,0,0,0,8.42-3.3,26.9,26.9,0,0,0,3.74-2.56,31.85,31.85,0,0,1,3.84-2.91,9.29,9.29,0,0,1,5-1.16,12.86,12.86,0,0,1,4.87,1.18,17,17,0,0,1,7.3,6.48,25.92,25.92,0,0,1,3.46,9,32,32,0,0,1,.35,9.62,27.43,27.43,0,0,1-2.78,9.25,14.81,14.81,0,0,1-1.22,2.11,19.81,19.81,0,0,1-1.42,2,26.62,26.62,0,0,1-3.43,3.45,31.57,31.57,0,0,1-17.73,6.8,32.74,32.74,0,0,1-9.57-.65,23,23,0,0,1-8.83-3.93,16.76,16.76,0,0,1-5.63-7.92,14.79,14.79,0,0,1-.13-9.7,5.75,5.75,0,0,1,.46-1.15c.18-.38.36-.75.55-1.12a16.85,16.85,0,0,1,1.43-2,16.65,16.65,0,0,1,3.64-3.23,27.33,27.33,0,0,1,8.78-3.76c3-.73,6.34-1.26,9.54-.4a11.16,11.16,0,0,1,4.33,2.25,12.64,12.64,0,0,1,3,3.79,19,19,0,0,1,1.63,4.5,26.48,26.48,0,0,1,.68,4.71,29.15,29.15,0,0,1-.42,4.71,15.32,15.32,0,0,0,.15,4.58A27,27,0,0,0,692.6,418a11.64,11.64,0,0,0,2.16,4,5.46,5.46,0,0,0,4,2A8.71,8.71,0,0,0,703.18,422.87Z" transform="translate(-655.47 -343.46)"/></svg>